<svg width="18" height="15" viewBox="0 0 18 15" fill="none" xmlns="http://www.w3.org/2000/svg">
<path d="M1.82602 6.15343C2.27091 6.35197 2.7379 6.50971 3.2049 6.65657C3.42596 6.72456 3.53373 6.82519 3.51162 7.04821C3.47017 7.43712 3.46188 7.8342 3.38728 8.21767C3.38175 8.24215 3.37622 8.26391 3.37346 8.28838L3.36517 8.3183C3.36517 8.3183 3.36517 8.3183 3.36793 8.3183C3.35688 8.37813 3.34859 8.43797 3.3403 8.50052C3.33201 8.49508 3.32648 8.48964 3.32096 8.4842C3.16898 9.05534 2.96449 9.61287 2.8208 10.1867C2.57763 11.1604 2.67435 12.0715 3.06673 12.8384C3.61663 13.91 4.62523 14.4022 4.95406 14.5627C5.13644 14.6524 5.39066 14.7776 5.75265 14.8537C5.99582 14.9081 6.27767 14.9244 6.8331 14.9543C7.11495 14.9707 7.3222 14.9788 7.33601 14.9788C8.28106 14.9978 8.75358 15.006 9.15149 14.9951C10.3148 14.9679 10.9974 14.9407 11.6412 14.7667C11.7241 14.7504 11.7987 14.7232 11.8706 14.6932C12.064 14.6688 12.2547 14.6117 12.437 14.5246C12.5089 14.4893 12.578 14.443 12.6415 14.3859C13.0698 14.1711 13.5672 13.8393 13.9513 13.279C14.5786 12.3652 14.5482 11.3752 14.515 10.9401C14.4625 10.2384 14.2 9.55576 14.0508 8.86224C13.9209 8.25847 13.8021 7.65198 13.6971 7.04277C13.6529 6.77624 13.7689 6.62122 14.0729 6.56954C14.4487 6.50427 14.819 6.39548 15.1838 6.27854C15.5706 6.15343 15.8856 5.97393 16.1647 5.77267H16.1592C16.278 5.7074 16.3885 5.63125 16.477 5.54422C16.5737 5.44903 16.6566 5.33209 16.7257 5.20426C17.0241 4.80719 17.201 4.33124 17.2203 3.76555C17.2479 2.91973 16.9771 2.15277 16.4797 1.46469C15.7254 0.412176 14.714 -0.118163 13.3931 0.0287002C12.1303 0.170124 11.2986 0.882681 10.7818 1.98143C10.7431 2.06302 10.7017 2.14461 10.6603 2.22892C9.27584 1.89712 7.91078 1.908 6.54295 2.23164C6.45453 2.04399 6.38544 1.87265 6.29702 1.70675C5.85489 0.871803 5.16683 0.325146 4.23008 0.0966923C2.53066 -0.3167 0.919659 0.621591 0.239891 2.41114C-0.376323 4.03752 0.209494 5.44087 1.82602 6.15343Z" fill="#EB5E9E"/>
</svg>
