<svg width="771" height="671" viewBox="0 0 771 671" fill="none" xmlns="http://www.w3.org/2000/svg">
<path d="M81.7467 275.263C101.663 284.145 122.57 291.201 143.476 297.771C153.373 300.812 158.197 305.314 157.207 315.29C155.352 332.687 154.981 350.45 151.641 367.604C151.393 368.699 151.146 369.672 151.022 370.767L150.651 372.105C150.651 372.105 150.651 372.105 150.775 372.105C150.28 374.782 149.909 377.458 149.538 380.257C149.167 380.013 148.919 379.77 148.672 379.527C141.868 405.075 132.714 430.016 126.281 455.686C115.395 499.241 119.725 539.997 137.291 574.305C161.908 622.239 207.061 644.26 221.782 651.438C229.947 655.453 241.328 661.049 257.533 664.456C268.419 666.889 281.037 667.619 305.902 668.957C318.52 669.687 327.798 670.052 328.417 670.052C370.724 670.904 391.878 671.269 409.692 670.782C461.772 669.565 492.328 668.349 521.151 660.563C524.862 659.833 528.202 658.616 531.419 657.278C540.078 656.183 548.614 653.628 556.778 649.735C559.995 648.153 563.087 646.085 565.933 643.53C585.107 633.919 607.374 619.076 624.569 594.014C652.651 553.136 651.29 508.852 649.805 489.386C647.455 457.998 635.703 427.461 629.023 396.437C623.209 369.429 617.889 342.298 613.188 315.047C611.209 303.124 616.405 296.189 630.012 293.878C646.836 290.958 663.413 286.091 679.742 280.86C697.061 275.264 711.164 267.234 723.658 258.231H723.411C728.73 255.311 733.678 251.905 737.637 248.012C741.967 243.753 745.678 238.522 748.77 232.804C762.131 215.041 770.048 193.751 770.914 168.446C772.151 130.609 760.028 96.3008 737.761 65.5206C703.989 18.438 658.712 -5.28582 599.581 1.28386C543.047 7.61021 505.811 39.4853 482.678 88.6362C480.947 92.286 479.091 95.9358 477.235 99.7073C415.259 84.8647 354.148 85.3513 292.913 99.8289C288.955 91.4343 285.862 83.7697 281.903 76.3484C262.11 38.9986 231.307 14.5449 189.371 4.32537C113.292 -14.167 41.1711 27.8059 10.7394 107.859C-16.8471 180.612 9.3786 243.388 81.7467 275.263Z" fill="#EFEBE4"/>
</svg>
