<svg width="94" height="94" viewBox="0 0 94 94" fill="none" xmlns="http://www.w3.org/2000/svg">
<path d="M32.9001 25.4585H61.1001C74.4168 25.4585 75.7485 31.686 76.6493 39.2843L80.1743 68.6593C81.3101 78.2943 78.3335 86.1668 64.6251 86.1668H29.4143C15.6668 86.1668 12.6901 78.2943 13.8651 68.6593L17.3901 39.2843C18.2518 31.686 19.5834 25.4585 32.9001 25.4585Z" stroke="#EB5E9E" stroke-width="4" stroke-linecap="round" stroke-linejoin="round"/>
<path d="M31.333 31.3335V17.6252C31.333 11.7502 35.2497 7.8335 41.1247 7.8335H52.8747C58.7497 7.8335 62.6663 11.7502 62.6663 17.6252V31.3335" stroke="#EB5E9E" stroke-width="4" stroke-linecap="round" stroke-linejoin="round"/>
<path d="M47 74C56.9411 74 65 65.9411 65 56C65 46.0589 56.9411 38 47 38C37.0589 38 29 46.0589 29 56C29 65.9411 37.0589 74 47 74Z" stroke="#EB5E9E" stroke-width="4" stroke-miterlimit="10" stroke-linecap="round" stroke-linejoin="round"/>
<path d="M48 50V54.5467C48 56.2578 47.28 57.8711 46.04 58.7511L43 61" stroke="#EB5E9E" stroke-width="4" stroke-miterlimit="10" stroke-linecap="round" stroke-linejoin="round"/>
</svg>
