<svg width="94" height="94" viewBox="0 0 94 94" fill="none" xmlns="http://www.w3.org/2000/svg">
<path d="M32.9001 25.4583H61.1001C74.4168 25.4583 75.7485 31.6857 76.6493 39.2841L80.1743 68.6591C81.3101 78.2941 78.3335 86.1666 64.6251 86.1666H29.4143C15.6668 86.1666 12.6901 78.2941 13.8651 68.6591L17.3901 39.2841C18.2518 31.6857 19.5834 25.4583 32.9001 25.4583Z" stroke="#EB5E9E" stroke-width="4" stroke-linecap="round" stroke-linejoin="round"/>
<path d="M31.333 31.3335V17.6252C31.333 11.7502 35.2497 7.8335 41.1247 7.8335H52.8747C58.7497 7.8335 62.6663 11.7502 62.6663 17.6252V31.3335" stroke="#EB5E9E" stroke-width="4" stroke-linecap="round" stroke-linejoin="round"/>
<path d="M46.5 73C56.165 73 64 65.165 64 55.5C64 45.835 56.165 38 46.5 38C36.835 38 29 45.835 29 55.5C29 65.165 36.835 73 46.5 73Z" stroke="#EB5E9E" stroke-width="4" stroke-miterlimit="10" stroke-linecap="round" stroke-linejoin="round"/>
<path d="M51 60L42 51" stroke="#EB5E9E" stroke-width="4" stroke-miterlimit="10" stroke-linecap="round" stroke-linejoin="round"/>
<path d="M51 51L42 60" stroke="#EB5E9E" stroke-width="4" stroke-miterlimit="10" stroke-linecap="round" stroke-linejoin="round"/>
</svg>
