<svg width="40" height="40" viewBox="0 0 40 40" fill="none" xmlns="http://www.w3.org/2000/svg">
<rect width="40" height="40" rx="1" fill="#EFEBE4"/>
<path fill-rule="evenodd" clip-rule="evenodd" d="M20 6C16.1976 6 15.7216 6.01587 14.2283 6.084C12.7377 6.15213 11.7195 6.3892 10.8291 6.73547C9.89573 7.0864 9.0492 7.63707 8.3492 8.35013C7.63727 9.04932 7.08627 9.89526 6.73453 10.8291C6.39013 11.7195 6.15213 12.7387 6.084 14.2292C6.0168 15.7216 6 16.1967 6 20C6 23.8033 6.01587 24.2784 6.084 25.7717C6.15213 27.2623 6.3892 28.2805 6.73547 29.1709C7.0864 30.1043 7.63707 30.9508 8.35013 31.6508C9.04934 32.3627 9.89528 32.9137 10.8291 33.2655C11.7195 33.6108 12.7377 33.8479 14.2283 33.916C15.7216 33.9841 16.1976 34 20 34C23.8024 34 24.2784 33.9841 25.7717 33.916C27.2623 33.8479 28.2805 33.6108 29.1709 33.2645C30.1043 32.9136 30.9508 32.3629 31.6508 31.6499C32.3627 30.9507 32.9137 30.1047 33.2655 29.1709C33.6108 28.2805 33.8479 27.2623 33.916 25.7717C33.9841 24.2784 34 23.8024 34 20C34 16.1976 33.9841 15.7216 33.916 14.2283C33.8479 12.7377 33.6108 11.7195 33.2645 10.8291C32.9131 9.89486 32.362 9.04857 31.6499 8.3492C30.9507 7.63727 30.1047 7.08627 29.1709 6.73453C28.2805 6.39013 27.2613 6.15213 25.7708 6.084C24.2784 6.0168 23.8033 6 20 6ZM20 8.5228C23.738 8.5228 24.1813 8.5368 25.6579 8.604C27.0224 8.66653 27.7635 8.89333 28.2572 9.08653C28.9105 9.33947 29.3772 9.64373 29.8672 10.1328C30.3572 10.6228 30.6605 11.0895 30.9135 11.7428C31.1057 12.2365 31.3335 12.9776 31.396 14.3421C31.4632 15.8187 31.4772 16.262 31.4772 20C31.4772 23.738 31.4632 24.1813 31.396 25.6579C31.3335 27.0224 31.1067 27.7635 30.9135 28.2572C30.6894 28.8653 30.3319 29.4155 29.8672 29.8672C29.4155 30.332 28.8654 30.6895 28.2572 30.9135C27.7635 31.1057 27.0224 31.3335 25.6579 31.396C24.1813 31.4632 23.7389 31.4772 20 31.4772C16.2611 31.4772 15.8187 31.4632 14.3421 31.396C12.9776 31.3335 12.2365 31.1067 11.7428 30.9135C11.1347 30.6894 10.5845 30.3319 10.1328 29.8672C9.66817 29.4154 9.31065 28.8653 9.08653 28.2572C8.89427 27.7635 8.66653 27.0224 8.604 25.6579C8.5368 24.1813 8.5228 23.738 8.5228 20C8.5228 16.262 8.5368 15.8187 8.604 14.3421C8.66653 12.9776 8.89333 12.2365 9.08653 11.7428C9.33947 11.0895 9.64373 10.6228 10.1328 10.1328C10.5845 9.66804 11.1346 9.31051 11.7428 9.08653C12.2365 8.89427 12.9776 8.66653 14.3421 8.604C15.8187 8.5368 16.262 8.5228 20 8.5228Z" fill="#C2AC8F"/>
<path fill-rule="evenodd" clip-rule="evenodd" d="M20.0002 24.6717C19.3867 24.6717 18.7793 24.5508 18.2126 24.3161C17.6458 24.0813 17.1308 23.7372 16.6971 23.3035C16.2633 22.8697 15.9192 22.3547 15.6844 21.788C15.4497 21.2212 15.3289 20.6138 15.3289 20.0003C15.3289 19.3869 15.4497 18.7794 15.6844 18.2127C15.9192 17.6459 16.2633 17.131 16.6971 16.6972C17.1308 16.2634 17.6458 15.9193 18.2126 15.6846C18.7793 15.4498 19.3867 15.329 20.0002 15.329C21.2391 15.329 22.4273 15.8211 23.3033 16.6972C24.1794 17.5732 24.6715 18.7614 24.6715 20.0003C24.6715 21.2392 24.1794 22.4274 23.3033 23.3035C22.4273 24.1795 21.2391 24.6717 20.0002 24.6717ZM20.0002 12.8043C18.0917 12.8043 16.2614 13.5625 14.9119 14.912C13.5623 16.2615 12.8042 18.0918 12.8042 20.0003C12.8042 21.9088 13.5623 23.7392 14.9119 25.0887C16.2614 26.4382 18.0917 27.1963 20.0002 27.1963C21.9087 27.1963 23.739 26.4382 25.0885 25.0887C26.438 23.7392 27.1962 21.9088 27.1962 20.0003C27.1962 18.0918 26.438 16.2615 25.0885 14.912C23.739 13.5625 21.9087 12.8043 20.0002 12.8043ZM29.2897 12.6737C29.2897 13.1248 29.1105 13.5574 28.7915 13.8764C28.4725 14.1954 28.0398 14.3747 27.5887 14.3747C27.1375 14.3747 26.7049 14.1954 26.3859 13.8764C26.0669 13.5574 25.8877 13.1248 25.8877 12.6737C25.8877 12.2225 26.0669 11.7899 26.3859 11.4709C26.7049 11.1519 27.1375 10.9727 27.5887 10.9727C28.0398 10.9727 28.4725 11.1519 28.7915 11.4709C29.1105 11.7899 29.2897 12.2225 29.2897 12.6737Z" fill="#C2AC8F"/>
</svg>
