<svg width="48" height="48" viewBox="0 0 48 48" fill="none" xmlns="http://www.w3.org/2000/svg">
<path fill-rule="evenodd" clip-rule="evenodd" d="M24 6.5C19.247 6.5 18.652 6.51983 16.7853 6.605C14.9222 6.69017 13.6493 6.9865 12.5363 7.41933C11.3697 7.858 10.3115 8.54633 9.4365 9.43767C8.54659 10.3117 7.85783 11.3691 7.41817 12.5363C6.98767 13.6493 6.69017 14.9233 6.605 16.7865C6.521 18.652 6.5 19.2458 6.5 24C6.5 28.7542 6.51983 29.348 6.605 31.2147C6.69017 33.0778 6.9865 34.3507 7.41933 35.4637C7.858 36.6303 8.54633 37.6885 9.43767 38.5635C10.3117 39.4534 11.3691 40.1421 12.5363 40.5818C13.6493 41.0135 14.9222 41.3098 16.7853 41.395C18.652 41.4802 19.247 41.5 24 41.5C28.753 41.5 29.348 41.4802 31.2147 41.395C33.0778 41.3098 34.3507 41.0135 35.4637 40.5807C36.6303 40.142 37.6885 39.4537 38.5635 38.5623C39.4534 37.6883 40.1422 36.6309 40.5818 35.4637C41.0135 34.3507 41.3098 33.0778 41.395 31.2147C41.4802 29.348 41.5 28.753 41.5 24C41.5 19.247 41.4802 18.652 41.395 16.7853C41.3098 14.9222 41.0135 13.6493 40.5807 12.5363C40.1413 11.3686 39.4525 10.3107 38.5623 9.4365C37.6883 8.54659 36.6309 7.85783 35.4637 7.41817C34.3507 6.98767 33.0767 6.69017 31.2135 6.605C29.348 6.521 28.7542 6.5 24 6.5ZM24 9.6535C28.6725 9.6535 29.2267 9.671 31.0723 9.755C32.778 9.83317 33.7043 10.1167 34.3215 10.3582C35.1382 10.6743 35.7215 11.0547 36.334 11.666C36.9465 12.2785 37.3257 12.8618 37.6418 13.6785C37.8822 14.2957 38.1668 15.222 38.245 16.9277C38.329 18.7733 38.3465 19.3275 38.3465 24C38.3465 28.6725 38.329 29.2267 38.245 31.0723C38.1668 32.778 37.8833 33.7043 37.6418 34.3215C37.3618 35.0816 36.9149 35.7693 36.334 36.334C35.7694 36.915 35.0817 37.3619 34.3215 37.6418C33.7043 37.8822 32.778 38.1668 31.0723 38.245C29.2267 38.329 28.6737 38.3465 24 38.3465C19.3263 38.3465 18.7733 38.329 16.9277 38.245C15.222 38.1668 14.2957 37.8833 13.6785 37.6418C12.9184 37.3618 12.2307 36.9149 11.666 36.334C11.0852 35.7693 10.6383 35.0816 10.3582 34.3215C10.1178 33.7043 9.83317 32.778 9.755 31.0723C9.671 29.2267 9.6535 28.6725 9.6535 24C9.6535 19.3275 9.671 18.7733 9.755 16.9277C9.83317 15.222 10.1167 14.2957 10.3582 13.6785C10.6743 12.8618 11.0547 12.2785 11.666 11.666C12.2306 11.0851 12.9183 10.6381 13.6785 10.3582C14.2957 10.1178 15.222 9.83317 16.9277 9.755C18.7733 9.671 19.3275 9.6535 24 9.6535V9.6535Z" fill="#C2AC8F"/>
<path fill-rule="evenodd" clip-rule="evenodd" d="M24.0001 29.8391C23.2333 29.8391 22.474 29.688 21.7656 29.3946C21.0571 29.1012 20.4134 28.671 19.8712 28.1288C19.329 27.5866 18.8989 26.9429 18.6054 26.2345C18.312 25.526 18.161 24.7667 18.161 23.9999C18.161 23.2331 18.312 22.4738 18.6054 21.7654C18.8989 21.0569 19.329 20.4132 19.8712 19.871C20.4134 19.3288 21.0571 18.8987 21.7656 18.6052C22.474 18.3118 23.2333 18.1607 24.0001 18.1607C25.5488 18.1607 27.034 18.7759 28.129 19.871C29.2241 20.9661 29.8393 22.4513 29.8393 23.9999C29.8393 25.5486 29.2241 27.0338 28.129 28.1288C27.034 29.2239 25.5488 29.8391 24.0001 29.8391V29.8391ZM24.0001 15.0049C21.6145 15.0049 19.3266 15.9526 17.6397 17.6395C15.9528 19.3264 15.0051 21.6143 15.0051 23.9999C15.0051 26.3855 15.9528 28.6735 17.6397 30.3603C19.3266 32.0472 21.6145 32.9949 24.0001 32.9949C26.3857 32.9949 28.6737 32.0472 30.3605 30.3603C32.0474 28.6735 32.9951 26.3855 32.9951 23.9999C32.9951 21.6143 32.0474 19.3264 30.3605 17.6395C28.6737 15.9526 26.3857 15.0049 24.0001 15.0049V15.0049ZM35.612 14.8416C35.612 15.4055 35.3879 15.9463 34.9892 16.3451C34.5904 16.7438 34.0496 16.9678 33.4857 16.9678C32.9218 16.9678 32.381 16.7438 31.9822 16.3451C31.5835 15.9463 31.3595 15.4055 31.3595 14.8416C31.3595 14.2777 31.5835 13.7368 31.9822 13.3381C32.381 12.9393 32.9218 12.7153 33.4857 12.7153C34.0496 12.7153 34.5904 12.9393 34.9892 13.3381C35.3879 13.7368 35.612 14.2777 35.612 14.8416" fill="#C2AC8F"/>
</svg>
