<svg width="50" height="50" viewBox="0 0 50 50" fill="none" xmlns="http://www.w3.org/2000/svg">
<rect width="50" height="50" rx="1" fill="#EFEBE4"/>
<path fill-rule="evenodd" clip-rule="evenodd" d="M25 7.5C20.247 7.5 19.652 7.51983 17.7853 7.605C15.9222 7.69017 14.6493 7.9865 13.5363 8.41933C12.3697 8.858 11.3115 9.54633 10.4365 10.4377C9.54659 11.3117 8.85783 12.3691 8.41817 13.5363C7.98767 14.6493 7.69017 15.9233 7.605 17.7865C7.521 19.652 7.5 20.2458 7.5 25C7.5 29.7542 7.51983 30.348 7.605 32.2147C7.69017 34.0778 7.9865 35.3507 8.41933 36.4637C8.858 37.6303 9.54633 38.6885 10.4377 39.5635C11.3117 40.4534 12.3691 41.1421 13.5363 41.5818C14.6493 42.0135 15.9222 42.3098 17.7853 42.395C19.652 42.4802 20.247 42.5 25 42.5C29.753 42.5 30.348 42.4802 32.2147 42.395C34.0778 42.3098 35.3507 42.0135 36.4637 41.5807C37.6303 41.142 38.6885 40.4537 39.5635 39.5623C40.4534 38.6883 41.1422 37.6309 41.5818 36.4637C42.0135 35.3507 42.3098 34.0778 42.395 32.2147C42.4802 30.348 42.5 29.753 42.5 25C42.5 20.247 42.4802 19.652 42.395 17.7853C42.3098 15.9222 42.0135 14.6493 41.5807 13.5363C41.1413 12.3686 40.4525 11.3107 39.5623 10.4365C38.6883 9.54659 37.6309 8.85783 36.4637 8.41817C35.3507 7.98767 34.0767 7.69017 32.2135 7.605C30.348 7.521 29.7542 7.5 25 7.5ZM25 10.6535C29.6725 10.6535 30.2267 10.671 32.0723 10.755C33.778 10.8332 34.7043 11.1167 35.3215 11.3582C36.1382 11.6743 36.7215 12.0547 37.334 12.666C37.9465 13.2785 38.3257 13.8618 38.6418 14.6785C38.8822 15.2957 39.1668 16.222 39.245 17.9277C39.329 19.7733 39.3465 20.3275 39.3465 25C39.3465 29.6725 39.329 30.2267 39.245 32.0723C39.1668 33.778 38.8833 34.7043 38.6418 35.3215C38.3618 36.0816 37.9149 36.7693 37.334 37.334C36.7694 37.915 36.0817 38.3619 35.3215 38.6418C34.7043 38.8822 33.778 39.1668 32.0723 39.245C30.2267 39.329 29.6737 39.3465 25 39.3465C20.3263 39.3465 19.7733 39.329 17.9277 39.245C16.222 39.1668 15.2957 38.8833 14.6785 38.6418C13.9184 38.3618 13.2307 37.9149 12.666 37.334C12.0852 36.7693 11.6383 36.0816 11.3582 35.3215C11.1178 34.7043 10.8332 33.778 10.755 32.0723C10.671 30.2267 10.6535 29.6725 10.6535 25C10.6535 20.3275 10.671 19.7733 10.755 17.9277C10.8332 16.222 11.1167 15.2957 11.3582 14.6785C11.6743 13.8618 12.0547 13.2785 12.666 12.666C13.2306 12.0851 13.9183 11.6381 14.6785 11.3582C15.2957 11.1178 16.222 10.8332 17.9277 10.755C19.7733 10.671 20.3275 10.6535 25 10.6535Z" fill="#C2AC8F"/>
<path fill-rule="evenodd" clip-rule="evenodd" d="M24.9999 30.8391C24.2331 30.8391 23.4738 30.688 22.7653 30.3946C22.0569 30.1012 21.4132 29.671 20.871 29.1288C20.3288 28.5866 19.8986 27.9429 19.6052 27.2345C19.3117 26.526 19.1607 25.7667 19.1607 24.9999C19.1607 24.2331 19.3117 23.4738 19.6052 22.7654C19.8986 22.0569 20.3288 21.4132 20.871 20.871C21.4132 20.3288 22.0569 19.8987 22.7653 19.6052C23.4738 19.3118 24.2331 19.1607 24.9999 19.1607C26.5485 19.1607 28.0337 19.7759 29.1288 20.871C30.2238 21.9661 30.839 23.4513 30.839 24.9999C30.839 26.5486 30.2238 28.0338 29.1288 29.1288C28.0337 30.2239 26.5485 30.8391 24.9999 30.8391ZM24.9999 16.0049C22.6143 16.0049 20.3263 16.9526 18.6395 18.6395C16.9526 20.3264 16.0049 22.6143 16.0049 24.9999C16.0049 27.3855 16.9526 29.6735 18.6395 31.3603C20.3263 33.0472 22.6143 33.9949 24.9999 33.9949C27.3855 33.9949 29.6734 33.0472 31.3603 31.3603C33.0472 29.6735 33.9949 27.3855 33.9949 24.9999C33.9949 22.6143 33.0472 20.3264 31.3603 18.6395C29.6734 16.9526 27.3855 16.0049 24.9999 16.0049ZM36.6117 15.8416C36.6117 16.4055 36.3877 16.9463 35.9889 17.3451C35.5902 17.7438 35.0494 17.9678 34.4855 17.9678C33.9215 17.9678 33.3807 17.7438 32.982 17.3451C32.5832 16.9463 32.3592 16.4055 32.3592 15.8416C32.3592 15.2777 32.5832 14.7368 32.982 14.3381C33.3807 13.9393 33.9215 13.7153 34.4855 13.7153C35.0494 13.7153 35.5902 13.9393 35.9889 14.3381C36.3877 14.7368 36.6117 15.2777 36.6117 15.8416Z" fill="#C2AC8F"/>
</svg>
