<svg width="40" height="40" viewBox="0 0 40 40" fill="none" xmlns="http://www.w3.org/2000/svg">
<rect width="40" height="40" rx="1" fill="#EFEBE4"/>
<path fill-rule="evenodd" clip-rule="evenodd" d="M5.92485 20.4244C13.441 17.2256 18.453 15.1167 20.9607 14.0978C28.1209 11.1887 29.6087 10.6834 30.5784 10.6667C30.7917 10.663 31.2686 10.7146 31.5775 10.9595C31.8383 11.1662 31.9101 11.4455 31.9444 11.6415C31.9788 11.8376 32.0215 12.2841 31.9876 12.633C31.5995 16.6154 29.9206 26.2795 29.0665 30.7399C28.7051 32.6272 27.9934 33.26 27.3045 33.3219C25.8072 33.4565 24.6703 32.3554 23.2201 31.4268C20.9509 29.9738 19.669 29.0693 17.4663 27.6514C14.9207 26.0128 16.5709 25.1122 18.0216 23.6403C18.4013 23.2551 24.9982 17.3938 25.1259 16.8621C25.1419 16.7956 25.1567 16.5477 25.0059 16.4168C24.8552 16.2859 24.6327 16.3307 24.4721 16.3663C24.2445 16.4167 20.6194 18.7573 13.5968 23.3879C12.5678 24.078 11.6358 24.4143 10.8008 24.3967C9.8802 24.3773 8.10939 23.8883 6.79297 23.4703C5.17832 22.9576 3.89504 22.6865 4.00678 21.8158C4.06499 21.3623 4.70434 20.8985 5.92485 20.4244Z" fill="#C2AC8F"/>
</svg>
