<svg width="40" height="40" viewBox="0 0 40 40" fill="none" xmlns="http://www.w3.org/2000/svg">
<rect width="40" height="40" rx="1" fill="#EFEBE4"/>
<g clip-path="url(#clip0_202_500)">
<path d="M32.1738 24.3151C31.5932 23.6181 30.9334 22.9935 30.2953 22.3894C30.0684 22.1745 29.8339 21.9524 29.6077 21.7316C28.9585 21.0968 28.9348 20.8583 29.4489 20.1373C29.8045 19.6403 30.1816 19.1426 30.5462 18.6613C30.877 18.2247 31.219 17.7731 31.5468 17.3201L31.6141 17.2269C32.2407 16.36 32.8887 15.4636 33.2335 14.3821C33.323 14.0968 33.4171 13.677 33.2021 13.3259C32.9872 12.9751 32.5705 12.8681 32.2756 12.8181C32.1298 12.7934 31.9849 12.79 31.8505 12.79L27.7474 12.7871L27.7134 12.7868C27.0931 12.7868 26.675 13.0791 26.4354 13.6806C26.2067 14.2554 25.9554 14.8674 25.6687 15.4493C25.0982 16.6081 24.3735 17.9427 23.325 19.0559L23.2807 19.1032C23.1569 19.2363 23.0166 19.387 22.914 19.387C22.8983 19.387 22.8812 19.384 22.8619 19.3779C22.6447 19.2933 22.4989 18.7675 22.5055 18.5229C22.5056 18.5195 22.5056 18.5162 22.5056 18.5128L22.5028 13.7703C22.5028 13.7539 22.5016 13.7376 22.4995 13.7213C22.3951 12.9504 22.1639 12.4705 21.2903 12.2994C21.2671 12.2948 21.2434 12.2925 21.2197 12.2925H16.9532C16.2581 12.2925 15.8751 12.575 15.5151 12.9979C15.4179 13.1109 15.2156 13.3462 15.3159 13.6317C15.4176 13.9214 15.7478 13.9833 15.8554 14.0035C16.3891 14.105 16.69 14.4315 16.7752 15.002C16.924 15.9926 16.9423 17.05 16.8328 18.3296C16.8022 18.6852 16.7418 18.9599 16.6423 19.1945C16.6192 19.2493 16.5372 19.428 16.4536 19.4281C16.427 19.4281 16.3502 19.4177 16.2102 19.3212C15.8792 19.0945 15.6371 18.7709 15.3548 18.3713C14.3944 17.014 13.5884 15.5188 12.8903 13.7993C12.6314 13.1662 12.1479 12.8119 11.5283 12.8014C10.8474 12.7911 10.2301 12.7861 9.64138 12.7861C8.99809 12.7861 8.40171 12.792 7.81934 12.8042C7.3208 12.813 6.97597 12.9624 6.79452 13.2487C6.61278 13.5352 6.62459 13.9115 6.82968 14.367C8.47136 18.0167 9.95986 20.6704 11.6562 22.9717C12.8447 24.5819 14.0369 25.6965 15.4076 26.4791C16.8517 27.3052 18.4701 27.7068 20.355 27.7068C20.5687 27.7068 20.7896 27.7016 21.0124 27.6912C22.1077 27.6378 22.514 27.2414 22.5654 26.175C22.5898 25.63 22.6494 25.0584 22.9173 24.5709C23.0865 24.2638 23.2441 24.2638 23.2959 24.2638C23.3958 24.2638 23.5195 24.3098 23.6525 24.3959C23.8909 24.5515 24.0953 24.7599 24.2629 24.942C24.4206 25.1151 24.5766 25.2898 24.7327 25.4647C25.0696 25.842 25.418 26.2321 25.7819 26.6022C26.5784 27.4126 27.456 27.769 28.4638 27.6916H32.2258C32.2338 27.6916 32.2418 27.6914 32.2498 27.6908C32.6247 27.6661 32.9494 27.4582 33.1406 27.1204C33.3774 26.7019 33.3727 26.1681 33.1278 25.692C32.85 25.1537 32.4896 24.6937 32.1738 24.3151Z" fill="#C2AC8F"/>
</g>
<defs>
<clipPath id="clip0_202_500">
<rect width="26.6667" height="26.6667" fill="white" transform="translate(6.6665 6.6665)"/>
</clipPath>
</defs>
</svg>
